# Blender v3.1.2 OBJ File: 'cardkey.blend'
# www.blender.org
mtllib cardkey.mtl
o Cube_Cube.001
v -0.108911 -1.067273 0.698933
v -0.108911 1.067273 0.698933
v -0.108911 -1.067273 -0.698933
v -0.108911 1.067273 -0.698933
v 0.634561 -1.067273 0.698933
v 0.108911 1.067273 0.698933
v -0.108911 -1.067273 0.438762
v -0.108911 1.067273 0.438762
v -0.108911 -1.067273 0.510913
v -0.108911 -1.067273 0.626782
v 0.108911 1.067273 0.562170
v 0.108911 1.067273 0.575525
v -0.108911 1.067273 0.626782
v -0.108911 1.067273 0.510913
v 0.634561 -1.067273 0.575525
v 0.634561 -1.067273 0.562170
v 0.220832 1.067273 0.438762
v 0.492289 0.537934 0.438762
v 0.358787 0.912233 0.438762
v 0.492289 0.537934 0.698933
v 0.220832 1.067273 0.698933
v 0.358787 0.912233 0.698933
v 0.746482 -1.067273 0.698933
v 0.757231 -0.537934 0.698933
v 0.808077 -0.912233 0.698933
v 0.757231 -0.537934 0.438762
v 0.746482 -1.067273 0.438762
v 0.808077 -0.912233 0.438762
v 0.492289 0.537934 0.544848
v 0.220832 1.067273 0.544848
v 0.358787 0.912233 0.544848
v 0.220832 1.067273 0.592847
v 0.492289 0.537934 0.592847
v 0.358787 0.912233 0.592847
v 0.757231 -0.537934 0.592847
v 0.746482 -1.067273 0.592847
v 0.808077 -0.912233 0.592847
v 0.746482 -1.067273 0.544848
v 0.757231 -0.537934 0.544848
v 0.808077 -0.912233 0.544848
v 0.108911 1.067273 -0.698933
v 0.634561 -1.067273 -0.698933
v 0.634561 -1.067273 0.438762
v 0.108911 1.067273 0.438762
v 0.340639 0.126278 -0.561846
v 0.421437 -0.201825 -0.346978
v 0.452236 -0.326894 -0.581657
v 0.397772 -0.105726 -0.498913
v 0.138694 0.946330 -0.346978
v 0.219492 0.618227 -0.561846
v 0.112909 1.051035 -0.680528
v 0.162359 0.850231 -0.498913
v 0.421437 -0.201825 0.086808
v 0.340639 0.126278 0.301675
v 0.452236 -0.326894 0.321486
v 0.397772 -0.105726 0.238742
v 0.219492 0.618227 0.301675
v 0.138694 0.946330 0.086808
v 0.112909 1.051035 0.420357
v 0.162359 0.850231 0.238742
v 0.113098 0.618227 -0.561846
v 0.032300 0.946330 -0.346978
v 0.055965 0.850231 -0.498913
v 0.315043 -0.201825 -0.346978
v 0.234245 0.126278 -0.561846
v 0.291378 -0.105726 -0.498913
v 0.234245 0.126278 0.301675
v 0.315043 -0.201825 0.086808
v 0.291378 -0.105726 0.238742
v 0.032300 0.946330 0.086808
v 0.113098 0.618227 0.301675
v 0.055965 0.850231 0.238742
vt 0.476362 0.564255
vt 0.480114 0.530939
vt 0.514790 0.529947
vt 0.572407 0.534179
vt 0.607083 0.539957
vt 0.610835 0.569217
vt 0.610835 0.634254
vt 0.607083 0.663513
vt 0.572407 0.669291
vt 0.514790 0.673523
vt 0.480114 0.672531
vt 0.476362 0.639215
vt 0.375000 0.046530
vt 0.625000 0.046530
vt 0.625000 0.250000
vt 0.375000 0.250000
vt 0.625000 0.500000
vt 0.375000 0.500000
vt 0.375000 0.750000
vt 0.375000 0.734490
vt 0.375000 0.734490
vt 0.375000 0.750000
vt 0.625000 0.750000
vt 0.625000 1.000000
vt 0.375000 1.000000
vt 0.125000 0.734490
vt 0.125000 0.750000
vt 0.625000 0.734490
vt 0.875000 0.734490
vt 0.875000 0.750000
vt 0.875000 0.500000
vt 0.875000 0.703470
vt 0.625000 0.703470
vt 0.125000 0.500000
vt 0.375000 0.703470
vt 0.125000 0.703470
vt 0.572407 0.669291
vt 0.514790 0.673523
vt 0.375000 0.031020
vt 0.625000 0.031020
vt 0.381053 0.750000
vt 0.436997 0.750000
vt 0.563003 0.750000
vt 0.618947 0.750000
vt 0.625000 0.750000
vt 0.625000 0.734490
vt 0.625000 0.718980
vt 0.625000 0.718980
vt 0.625000 0.703470
vt 0.375000 0.718980
vt 0.375000 0.718980
vt 0.381053 0.718980
vt 0.436997 0.718980
vt 0.563003 0.718980
vt 0.618947 0.718980
vt 0.375000 0.703470
vt 0.618947 0.734490
vt 0.563003 0.734490
vt 0.436997 0.734490
vt 0.381053 0.734490
vt 0.618947 0.703470
vt 0.563003 0.703470
vt 0.436997 0.703470
vt 0.381053 0.703470
vt 0.375000 0.000000
vt 0.625000 0.000000
vt 0.625000 0.015510
vt 0.375000 0.015510
vt 0.875000 0.718980
vt 0.125000 0.718980
vt 0.476362 0.639215
vt 0.476362 0.564255
vt 0.623098 0.504968
vt 0.572407 0.534179
vt 0.514790 0.529947
vt 0.461714 0.523204
vt 0.610835 0.569217
vt 0.610835 0.634254
vt 0.461714 0.680266
vt 0.623098 0.698502
vt 0.487617 0.527951
vt 0.476362 0.527124
vt 0.610835 0.546437
vt 0.610835 0.537002
vt 0.476362 0.665470
vt 0.476362 0.676346
vt 0.599580 0.667295
vt 0.610835 0.666468
vt 0.610835 0.666468
vt 0.610835 0.537002
vt 0.476362 0.527124
vt 0.476362 0.676346
vn 0.9710 0.2391 0.0000
vn -1.0000 0.0000 0.0000
vn 0.0000 0.0000 -1.0000
vn 0.0000 -1.0000 -0.0000
vn 0.0000 0.0000 1.0000
vn 0.0000 1.0000 -0.0000
vn 0.0743 0.0183 0.9971
vn 0.0743 0.0183 -0.9971
vn 0.7471 0.6647 -0.0000
vn 0.9419 0.3359 -0.0000
vn 0.9293 -0.3692 0.0000
vn 0.9909 0.1346 0.0000
vn 0.0000 -0.2618 -0.9651
vn -0.0000 -0.8451 -0.5346
vn 0.0000 -0.2618 0.9651
vn 0.0000 -0.8451 0.5346
vn -0.0000 0.8451 0.5346
vn 0.0000 0.2618 0.9651
vn 0.0000 0.8451 -0.5346
vn -0.0000 0.2618 -0.9651
usemtl Material.001
s off
f 64/1/1 66/2/1 65/3/1 61/4/1 63/5/1 62/6/1 70/7/1 72/8/1 71/9/1 67/10/1 69/11/1 68/12/1
usemtl Material.002
f 7/13/2 8/14/2 4/15/2 3/16/2
f 3/16/3 4/15/3 41/17/3 42/18/3
f 5/19/4 15/20/4 36/21/4 23/22/4
f 5/19/5 6/23/5 2/24/5 1/25/5
f 10/26/4 15/20/4 5/19/4 1/27/4
f 12/28/6 13/29/6 2/30/6 6/23/6
f 41/17/6 4/31/6 8/32/6 44/33/6
f 3/34/4 42/18/4 43/35/4 7/36/4
f 57/37/3 54/38/3 67/10/3 71/9/3
f 9/39/2 14/40/2 8/14/2 7/13/2
f 6/23/5 5/19/5 23/22/5 25/41/5 24/42/5 20/43/5 22/44/5 21/45/5
f 12/28/6 6/23/6 21/45/6 32/46/6
f 44/33/6 11/47/6 30/48/6 17/49/6
f 16/50/7 38/51/7 40/52/7 39/53/7 29/54/7 31/55/7 30/48/7 11/47/7
f 16/50/4 43/35/4 27/56/4 38/51/4
f 15/20/8 12/28/8 32/46/8 34/57/8 33/58/8 35/59/8 37/60/8 36/21/8
f 43/35/3 44/33/3 17/49/3 19/61/3 18/62/3 26/63/3 28/64/3 27/56/3
f 1/65/2 2/66/2 13/67/2 10/68/2
f 10/68/2 13/67/2 14/40/2 9/39/2
f 44/33/6 8/32/6 14/69/6 11/47/6
f 11/47/6 14/69/6 13/29/6 12/28/6
f 7/36/4 43/35/4 16/50/4 9/70/4
f 9/70/4 16/50/4 15/20/4 10/26/4
f 35/59/1 33/58/1 20/43/1 24/42/1
f 11/47/1 12/28/1 15/20/1 16/50/1
f 32/46/9 21/45/9 22/44/9 34/57/9
f 34/57/10 22/44/10 20/43/10 33/58/10
f 38/51/11 27/56/11 28/64/11 40/52/11
f 40/52/12 28/64/12 26/63/12 39/53/12
f 17/49/9 30/48/9 31/55/9 19/61/9
f 19/61/10 31/55/10 29/54/10 18/62/10
f 23/22/11 36/21/11 37/60/11 25/41/11
f 25/41/12 37/60/12 35/59/12 24/42/12
f 26/63/1 18/62/1 29/54/1 39/53/1
f 53/71/6 46/72/6 64/1/6 68/12/6
f 51/73/1 50/74/1 45/75/1 47/76/1 42/18/1 41/17/1
f 49/77/4 58/78/4 70/7/4 62/6/4
f 47/76/1 46/72/1 53/71/1 55/79/1 43/35/1 42/18/1
f 55/79/1 54/38/1 57/37/1 59/80/1 44/33/1 43/35/1
f 59/80/1 58/78/1 49/77/1 51/73/1 41/17/1 44/33/1
f 45/75/1 48/81/1 47/76/1
f 48/81/1 46/82/1 47/76/1
f 49/77/1 52/83/1 51/73/1
f 52/83/1 50/84/1 51/73/1
f 53/71/1 56/85/1 55/79/1
f 56/85/1 54/86/1 55/79/1
f 57/37/1 60/87/1 59/80/1
f 60/87/1 58/88/1 59/80/1
f 57/37/13 71/9/13 72/8/13 60/89/13
f 60/89/14 72/8/14 70/7/14 58/78/14
f 61/4/15 50/74/15 52/90/15 63/5/15
f 63/5/16 52/90/16 49/77/16 62/6/16
f 64/1/17 46/72/17 48/91/17 66/2/17
f 66/2/18 48/91/18 45/75/18 65/3/18
f 53/71/19 68/12/19 69/11/19 56/92/19
f 56/92/20 69/11/20 67/10/20 54/38/20
f 45/75/5 50/74/5 61/4/5 65/3/5
