# Blender v3.1.2 OBJ File: 'cardkey.blend'
# www.blender.org
mtllib UsbKey.mtl
o Cube.001_Cube.002
v -0.108911 -1.067273 -0.698933
v -0.108911 1.067273 -0.698933
v -0.108911 -1.067273 0.438762
v -0.108911 1.067273 0.438762
v 0.108911 1.067273 -0.698933
v 0.506442 -0.547012 -0.340345
v 0.506442 -0.547012 0.080174
v 0.108911 1.067273 0.438762
v 0.340639 0.126278 -0.561846
v 0.489196 -0.473308 -0.284974
v 0.489196 -0.473308 -0.340345
v 0.397772 -0.105726 -0.498913
v 0.138694 0.946330 -0.346978
v 0.219492 0.618227 -0.561846
v 0.112909 1.051035 -0.680528
v 0.162359 0.850231 -0.498913
v 0.489196 -0.473308 0.024412
v 0.340639 0.126278 0.301675
v 0.489196 -0.473308 0.080174
v 0.397772 -0.105726 0.238742
v 0.219492 0.618227 0.301675
v 0.138694 0.946330 0.086808
v 0.112909 1.051035 0.420357
v 0.162359 0.850231 0.238742
v 0.113098 0.618227 -0.561846
v 0.032300 0.946330 -0.346978
v 0.055965 0.850231 -0.498913
v 0.315043 -0.201825 -0.346978
v 0.234245 0.126278 -0.561846
v 0.291378 -0.105726 -0.498913
v 0.234245 0.126278 0.301675
v 0.315043 -0.201825 0.086808
v 0.291378 -0.105726 0.238742
v 0.032300 0.946330 0.086808
v 0.113098 0.618227 0.301675
v 0.055965 0.850231 0.238742
v 0.634561 -1.067273 0.438762
v 0.634561 -1.067273 -0.698933
v 0.421437 -0.201825 -0.346978
v 0.452236 -0.326894 -0.581657
v 0.452236 -0.326894 0.321486
v 0.421437 -0.201825 0.086808
v 0.408714 -0.569879 0.080174
v 0.408714 -0.569879 -0.340345
v 0.391468 -0.496175 -0.284974
v 0.391468 -0.496175 -0.340345
v 0.391468 -0.496175 0.080174
v 0.391468 -0.496175 0.024412
vt 0.476362 0.564255
vt 0.480114 0.530939
vt 0.514790 0.529947
vt 0.572407 0.534179
vt 0.607083 0.539957
vt 0.610835 0.569217
vt 0.610835 0.634254
vt 0.607083 0.663513
vt 0.572407 0.669291
vt 0.514790 0.673523
vt 0.480114 0.672531
vt 0.476362 0.639215
vt 0.375000 0.046530
vt 0.625000 0.046530
vt 0.625000 0.250000
vt 0.375000 0.250000
vt 0.625000 0.500000
vt 0.375000 0.500000
vt 0.875000 0.500000
vt 0.875000 0.703470
vt 0.625000 0.703470
vt 0.125000 0.500000
vt 0.375000 0.703470
vt 0.125000 0.703470
vt 0.572407 0.669291
vt 0.514790 0.673523
vt 0.476362 0.639215
vt 0.476362 0.564255
vt 0.623098 0.504968
vt 0.572407 0.534179
vt 0.514790 0.529947
vt 0.461714 0.523204
vt 0.610835 0.569217
vt 0.610835 0.634254
vt 0.444542 0.656621
vt 0.435933 0.658857
vt 0.435933 0.658857
vt 0.444542 0.656621
vt 0.461714 0.680266
vt 0.623098 0.698502
vt 0.487617 0.527951
vt 0.476362 0.527124
vt 0.610835 0.546437
vt 0.610835 0.537002
vt 0.476362 0.665470
vt 0.476362 0.676346
vt 0.599580 0.667295
vt 0.610835 0.666468
vt 0.610835 0.666468
vt 0.610835 0.537002
vt 0.476362 0.527124
vt 0.476362 0.676346
vt 0.435933 0.544613
vt 0.445581 0.561837
vt 0.444542 0.546850
vt 0.445587 0.641539
vt 0.444542 0.546850
vt 0.445581 0.561837
vt 0.445587 0.641539
vt 0.435933 0.544613
vn 0.9710 0.2391 0.0000
vn -1.0000 0.0000 0.0000
vn 0.0000 0.0000 -1.0000
vn 0.0000 1.0000 0.0000
vn 0.0000 -1.0000 0.0000
vn 0.0000 0.0000 1.0000
vn 0.0000 -0.2618 -0.9651
vn -0.0000 -0.8451 -0.5346
vn 0.0000 -0.2618 0.9651
vn 0.0000 -0.8451 0.5346
vn -0.0000 0.8451 0.5346
vn 0.0000 0.2618 0.9651
vn 0.0000 0.8451 -0.5346
vn -0.0000 0.2618 -0.9651
vn 0.9702 0.2421 -0.0014
vn 0.9702 0.2421 0.0014
vn 0.9712 0.2382 -0.0009
vn 0.9702 0.2422 0.0000
vn 0.9712 0.2382 0.0009
vn 0.9737 0.2278 0.0000
vn 0.2278 -0.9737 0.0000
vn -0.2278 0.9737 0.0000
usemtl Material.001
s off
f 28/1/1 30/2/1 29/3/1 25/4/1 27/5/1 26/6/1 34/7/1 36/8/1 35/9/1 31/10/1 33/11/1 32/12/1
usemtl Material.002
f 3/13/2 4/14/2 2/15/2 1/16/2
f 1/16/3 2/15/3 5/17/3 38/18/3
f 5/17/4 2/19/4 4/20/4 8/21/4
f 1/22/5 38/18/5 37/23/5 3/24/5
f 21/25/3 18/26/3 31/10/3 35/9/3
f 4/14/6 3/13/6 37/23/6 8/21/6
f 42/27/4 39/28/4 28/1/4 32/12/4
f 15/29/1 14/30/1 9/31/1 40/32/1 38/18/1 5/17/1
f 13/33/5 22/34/5 34/7/5 26/6/5
f 19/35/3 7/36/3 43/37/3 47/38/3
f 41/39/1 18/26/1 21/25/1 23/40/1 8/21/1 37/23/1
f 23/40/1 22/34/1 13/33/1 15/29/1 5/17/1 8/21/1
f 9/31/1 12/41/1 40/32/1
f 12/41/1 39/42/1 40/32/1
f 13/33/1 16/43/1 15/29/1
f 16/43/1 14/44/1 15/29/1
f 42/27/1 20/45/1 41/39/1
f 20/45/1 18/46/1 41/39/1
f 21/25/1 24/47/1 23/40/1
f 24/47/1 22/48/1 23/40/1
f 21/25/7 35/9/7 36/8/7 24/49/7
f 24/49/8 36/8/8 34/7/8 22/34/8
f 25/4/9 14/30/9 16/50/9 27/5/9
f 27/5/10 16/50/10 13/33/10 26/6/10
f 28/1/11 39/28/11 12/51/11 30/2/11
f 30/2/12 12/51/12 9/31/12 29/3/12
f 42/27/13 32/12/13 33/11/13 20/52/13
f 20/52/14 33/11/14 31/10/14 18/26/14
f 9/31/6 14/30/6 25/4/6 29/3/6
f 6/53/1 7/36/1 37/23/1 38/18/1
f 10/54/15 11/55/15 40/32/15 39/28/15
f 19/35/16 17/56/16 42/27/16 41/39/16
f 11/55/17 6/53/17 38/18/17 40/32/17
f 17/56/18 10/54/18 39/28/18 42/27/18
f 7/36/19 19/35/19 41/39/19 37/23/19
f 46/57/20 45/58/20 48/59/20 47/38/20 43/37/20 44/60/20
f 6/53/6 11/55/6 46/57/6 44/60/6
f 11/55/21 10/54/21 45/58/21 46/57/21
f 10/54/21 17/56/21 48/59/21 45/58/21
f 17/56/21 19/35/21 47/38/21 48/59/21
f 7/36/22 6/53/22 44/60/22 43/37/22
